<svg xmlns="http://www.w3.org/2000/svg" xmlns:xlink="http://www.w3.org/1999/xlink" fill="none" version="1.1" width="157.72265625" height="234" viewBox="0 0 157.72265625 234"><defs><filter id="master_svg0_20_2294" filterUnits="objectBoundingBox" color-interpolation-filters="sRGB" x="0" y="0" width="157.7227783203125" height="234"><feFlood flood-opacity="0" result="BackgroundImageFix"/><feBlend mode="normal" in="SourceGraphic" in2="BackgroundImageFix" result="shape"/><feColorMatrix in="SourceAlpha" type="matrix" result="hardAlpha" values="0 0 0 0 0 0 0 0 0 0 0 0 0 0 0 0 0 0 127 0"/><feOffset dy="4" dx="0"/><feGaussianBlur stdDeviation="5"/><feComposite in2="hardAlpha" operator="arithmetic" k2="-1" k3="1"/><feColorMatrix type="matrix" values="0 0 0 0 0 0 0 0 0 0 0 0 0 0 0 0 0 0 0.30000001192092896 0"/><feBlend mode="normal" in2="shape" result="effect1_innerShadow"/></filter></defs><g filter="url(#master_svg0_20_2294)"><g><path d="M109.888,34.9197L114.442,3.44518L90.6166,0L86.037,31.6461L85.5408,31.5779L69.085,29.3193Q45.1903,26.0396,23.5048,36.5926L8.07238,44.1026L0.202232,137.942Q-1.74359,161.143,15.0328,172.906L3.99536,209.692L27.0541,216.605L37.6483,181.297L84.2299,192.092L84.4883,192.152L84.7282,192.21L95.0269,194.692L99.1693,234L123.111,231.48L119.82,200.262L121.395,200.603L131.763,189.981Q153.197,168.02,154.294,137.36L157.723,41.4854L109.888,34.9197ZM30.3582,66.4258L24.1917,139.952Q23.2609,151.05,33.1338,155.549L89.6665,168.649L89.9754,168.722L90.3186,168.803L105.901,172.559L109.019,82.4937L30.3582,66.4258ZM39,105.5L95,117L96.5,93L41.5,82.4941L39,105.5Z" fill-rule="evenodd" fill="#3578FF" fill-opacity="1"/></g></g></svg>