<svg xmlns="http://www.w3.org/2000/svg" xmlns:xlink="http://www.w3.org/1999/xlink" fill="none" version="1.1" width="98.08961486816406" height="51" viewBox="0 0 98.08961486816406 51"><defs><radialGradient cx="0" cy="0" r="1" gradientUnits="userSpaceOnUse" id="master_svg0_10_35562" gradientTransform="translate(8.089612483978271 28) rotate(90) scale(12 11.24459481239319)"><stop offset="14.28571492433548%" stop-color="#4153FF" stop-opacity="1"/><stop offset="75%" stop-color="#00FFB7" stop-opacity="1"/></radialGradient><radialGradient cx="0" cy="0" r="1" gradientUnits="userSpaceOnUse" id="master_svg1_10_35565" gradientTransform="translate(8.089612483978271 29.657866954803467) rotate(90) scale(10.342133045196533 10.023201701352846)"><stop offset="10.217086225748062%" stop-color="#006343" stop-opacity="1"/><stop offset="60.71428656578064%" stop-color="#00FFB7" stop-opacity="1"/></radialGradient></defs><g><g><path d="M29.10521248397827,33.1094Q29.10521248397827,34.4453,28.47831248397827,35.3652Q27.851332483978272,36.2852,26.60914248397827,36.7598Q25.36695248397827,37.2344,23.51539248397827,37.2344Q22.144302483978272,37.2344,21.165782483978273,37.0586Q20.187272483978273,36.8828,19.19117248397827,36.4727L19.19117248397827,33.5195Q20.257582483978272,34,21.48219248397827,34.3105Q22.706802483978272,34.6211,23.632582483978272,34.6211Q24.675552483978272,34.6211,25.12672248397827,34.3105Q25.57789248397827,34,25.57789248397827,33.4961Q25.57789248397827,33.168,25.396252483978273,32.9043Q25.21461248397827,32.6406,24.61695248397827,32.3066Q24.019302483978272,31.9727,22.74195248397827,31.4336Q21.511492483978273,30.918,20.72047248397827,30.3906Q19.92945248397827,29.8633,19.548592483978272,29.1426Q19.16773248397827,28.4219,19.16773248397827,27.3086Q19.16773248397827,25.4922,20.579842483978272,24.5723Q21.99195248397827,23.6523,24.35914248397827,23.6523Q25.57789248397827,23.6523,26.685312483978272,23.8984Q27.79273248397827,24.1445,28.96461248397827,24.6836L27.886492483978273,27.2617Q26.913832483978272,26.8398,26.052502483978273,26.5703Q25.19117248397827,26.3008,24.300552483978272,26.3008Q23.51539248397827,26.3008,23.11695248397827,26.5117Q22.718522483978273,26.7227,22.718522483978273,27.1562Q22.718522483978273,27.4727,22.923592483978272,27.7188Q23.12867248397827,27.9648,23.72047248397827,28.2637Q24.312272483978273,28.5625,25.46070248397827,29.0312Q26.573992483978273,29.4883,27.394302483978272,29.9863Q28.21461248397827,30.4844,28.65991248397827,31.2168Q29.10521248397827,31.9492,29.10521248397827,33.1094ZM33.59651248397827,18.7656L33.59651248397827,22.4805Q33.59651248397827,23.4531,33.532112483978274,24.332Q33.46761248397827,25.2109,33.43241248397827,25.5742L33.61991248397827,25.5742Q34.04181248397827,24.8945,34.62191248397827,24.4727Q35.20201248397827,24.0508,35.90511248397827,23.8516Q36.60821248397827,23.6523,37.416812483978276,23.6523Q38.83481248397827,23.6523,39.88951248397827,24.1504Q40.944212483978276,24.6484,41.53011248397827,25.709Q42.11601248397827,26.7695,42.11601248397827,28.457L42.11601248397827,37L38.541812483978276,37L38.541812483978276,29.3477Q38.541812483978276,27.9414,38.02621248397827,27.2266Q37.51061248397827,26.5117,36.43241248397827,26.5117Q35.354312483978276,26.5117,34.73321248397827,27.0098Q34.11211248397827,27.5078,33.85431248397827,28.4746Q33.59651248397827,29.4414,33.59651248397827,30.8359L33.59651248397827,37L30.022312483978272,37L30.022312483978272,18.7656L33.59651248397827,18.7656ZM49.32611248397827,23.6523Q51.14251248397827,23.6523,52.45501248397827,24.3496Q53.76751248397827,25.0469,54.48231248397827,26.3711Q55.19721248397827,27.6953,55.19721248397827,29.6055L55.19721248397827,31.3398L46.74791248397827,31.3398Q46.80651248397827,32.8516,47.656112483978276,33.7129Q48.505812483978275,34.5742,50.01751248397827,34.5742Q51.271412483978274,34.5742,52.31441248397827,34.3164Q53.35731248397827,34.0586,54.458912483978274,33.543L54.458912483978274,36.3086Q53.48621248397827,36.7891,52.42571248397827,37.0117Q51.36511248397827,37.2344,49.853412483978275,37.2344Q47.88471248397828,37.2344,46.367112483978275,36.5078Q44.84951248397827,35.7812,43.98821248397827,34.293Q43.12691248397827,32.8047,43.12691248397827,30.543Q43.12691248397827,28.2461,43.906112483978276,26.7168Q44.68541248397827,25.1875,46.08001248397827,24.4199Q47.47451248397827,23.6523,49.32611248397827,23.6523ZM49.34951248397827,26.1953Q48.30651248397827,26.1953,47.62101248397828,26.8633Q46.93541248397827,27.5312,46.83001248397827,28.9609L51.84561248397827,28.9609Q51.833912483978274,28.1641,51.55851248397827,27.543Q51.28311248397827,26.9219,50.73821248397827,26.5586Q50.193312483978275,26.1953,49.34951248397827,26.1953ZM59.80561248397827,37L56.231412483978275,37L56.231412483978275,18.7656L59.80561248397827,18.7656L59.80561248397827,37ZM64.80081248397826,37L59.80861248397827,23.8984L63.54691248397827,23.8984L66.07821248397826,31.3633Q66.28911248397827,32.0195,66.41211248397826,32.7461Q66.53521248397827,33.4727,66.58211248397828,34.0469L66.67581248397826,34.0469Q66.71101248397827,33.4258,66.84571248397828,32.7227Q66.98051248397827,32.0195,67.20321248397826,31.3633L69.72271248397827,23.8984L73.46101248397827,23.8984L68.46881248397827,37L64.80081248397826,37ZM78.83121248397828,23.6289Q81.46791248397827,23.6289,82.87411248397827,24.7773Q84.28041248397827,25.9258,84.28041248397827,28.2695L84.28041248397827,37L81.78431248397827,37L81.09291248397827,35.2188L80.99911248397828,35.2188Q80.43661248397828,35.9219,79.85071248397827,36.3672Q79.26481248397826,36.8125,78.50301248397827,37.0234Q77.74131248397828,37.2344,76.65151248397828,37.2344Q75.49131248397828,37.2344,74.57141248397826,36.7891Q73.65151248397828,36.3438,73.12411248397828,35.4238Q72.59681248397827,34.5039,72.59681248397827,33.0859Q72.59681248397827,31,74.06161248397828,30.0098Q75.52651248397828,29.0195,78.45621248397828,28.9141L80.72961248397827,28.8438L80.72961248397827,28.2695Q80.72961248397827,27.2383,80.19051248397827,26.7578Q79.65151248397828,26.2773,78.69051248397827,26.2773Q77.74131248397828,26.2773,76.82731248397826,26.5469Q75.91321248397827,26.8164,74.99911248397828,27.2266L73.81551248397827,24.8125Q74.85851248397827,24.2617,76.15341248397827,23.9453Q77.44831248397827,23.6289,78.83121248397828,23.6289ZM80.72961248397827,30.9297L79.34681248397827,30.9766Q77.61241248397826,31.0234,76.93861248397826,31.5977Q76.26481248397826,32.1719,76.26481248397826,33.1094Q76.26481248397826,33.9297,76.74521248397826,34.2754Q77.22571248397827,34.6211,77.99911248397828,34.6211Q79.14761248397826,34.6211,79.93861248397826,33.9414Q80.72961248397827,33.2617,80.72961248397827,32.0078L80.72961248397827,30.9297ZM95.22871248397827,33.1094Q95.22871248397827,34.4453,94.60171248397828,35.3652Q93.97481248397827,36.2852,92.73261248397827,36.7598Q91.49041248397828,37.2344,89.63881248397827,37.2344Q88.26781248397828,37.2344,87.28921248397828,37.0586Q86.31071248397828,36.8828,85.31461248397827,36.4727L85.31461248397827,33.5195Q86.38101248397827,34,87.60561248397828,34.3105Q88.83031248397828,34.6211,89.75601248397827,34.6211Q90.79901248397827,34.6211,91.25021248397827,34.3105Q91.70131248397827,34,91.70131248397827,33.4961Q91.70131248397827,33.168,91.51971248397827,32.9043Q91.33811248397828,32.6406,90.74041248397828,32.3066Q90.14281248397828,31.9727,88.86541248397828,31.4336Q87.63491248397827,30.918,86.84391248397827,30.3906Q86.05291248397828,29.8633,85.67211248397827,29.1426Q85.29121248397827,28.4219,85.29121248397827,27.3086Q85.29121248397827,25.4922,86.70331248397827,24.5723Q88.11541248397828,23.6523,90.48261248397827,23.6523Q91.70131248397827,23.6523,92.80881248397827,23.8984Q93.91621248397827,24.1445,95.08811248397828,24.6836L94.00991248397827,27.2617Q93.03731248397827,26.8398,92.17601248397827,26.5703Q91.31461248397827,26.3008,90.42401248397827,26.3008Q89.63881248397827,26.3008,89.24041248397828,26.5117Q88.84201248397827,26.7227,88.84201248397827,27.1562Q88.84201248397827,27.4727,89.04711248397827,27.7188Q89.25211248397827,27.9648,89.84391248397827,28.2637Q90.43571248397828,28.5625,91.58421248397828,29.0312Q92.69741248397827,29.4883,93.51781248397828,29.9863Q94.33811248397828,30.4844,94.78341248397827,31.2168Q95.22871248397827,31.9492,95.22871248397827,33.1094Z" fill="#000000" fill-opacity="1"/></g><g><path d="M11.41161248397827,19.44879L11.884612483978271,16.178957L9.410362483978272,15.821043L8.934782483978271,19.1087L8.883252483978271,19.10162L7.174342483978272,18.86697Q4.692932483978272,18.52625,2.440932483978272,19.62259L0.8383024839782716,20.40279L0.021002483978271425,30.151600000000002Q-0.18106751602172855,32.5619,1.5611244839782714,33.784L0.4149114839782715,37.605599999999995L2.8095224839782715,38.3238L3.9097024839782715,34.655699999999996L8.74711248397827,35.7772L8.77395248397827,35.7834L8.798862483978272,35.7894L9.868362483978272,36.0473L10.298542483978272,40.1309L12.784812483978271,39.8691L12.443112483978272,36.6259L12.606612483978271,36.6613L13.683312483978272,35.5578Q15.909212483978271,33.276399999999995,16.023112483978274,30.0911L16.37921248397827,20.13089L11.41161248397827,19.44879ZM3.1526424839782714,22.721899999999998L2.5122624839782715,30.3604Q2.4156024839782715,31.5134,3.4408824839782715,31.980800000000002L9.311692483978272,33.3417L9.343772483978272,33.3493L9.379412483978271,33.3577L10.997642483978272,33.7479L11.321412483978271,24.391170000000002L3.1526424839782714,22.721899999999998ZM3.9828524839782715,26.7506L9.744622483978272,27.924799999999998L10.243852483978271,25.475189999999998L4.482082483978271,24.30096L3.9828524839782715,26.7506Z" fill-rule="evenodd" fill="url(#master_svg0_10_35562)" fill-opacity="1"/><path d="M11.41161248397827,19.44879L11.884612483978271,16.178957L9.410362483978272,15.821043L8.934782483978271,19.1087L8.883252483978271,19.10162L7.174342483978272,18.86697Q4.692932483978272,18.52625,2.440932483978272,19.62259L0.8383024839782716,20.40279L0.021002483978271425,30.151600000000002Q-0.18106751602172855,32.5619,1.5611244839782714,33.784L0.4149114839782715,37.605599999999995L2.8095224839782715,38.3238L3.9097024839782715,34.655699999999996L8.74711248397827,35.7772L8.77395248397827,35.7834L8.798862483978272,35.7894L9.868362483978272,36.0473L10.298542483978272,40.1309L12.784812483978271,39.8691L12.443112483978272,36.6259L12.606612483978271,36.6613L13.683312483978272,35.5578Q15.909212483978271,33.276399999999995,16.023112483978274,30.0911L16.37921248397827,20.13089L11.41161248397827,19.44879ZM3.1526424839782714,22.721899999999998L2.5122624839782715,30.3604Q2.4156024839782715,31.5134,3.4408824839782715,31.980800000000002L9.311692483978272,33.3417L9.343772483978272,33.3493L9.379412483978271,33.3577L10.997642483978272,33.7479L11.321412483978271,24.391170000000002L3.1526424839782714,22.721899999999998ZM3.9828524839782715,26.7506L9.744622483978272,27.924799999999998L10.243852483978271,25.475189999999998L4.482082483978271,24.30096L3.9828524839782715,26.7506Z" fill-rule="evenodd" fill="url(#master_svg1_10_35565)" fill-opacity="1"/><path d="M11.41161248397827,19.44879L11.884612483978271,16.178957L9.410362483978272,15.821043L8.934782483978271,19.1087L8.883252483978271,19.10162L7.174342483978272,18.86697Q4.692932483978272,18.52625,2.440932483978272,19.62259L0.8383024839782716,20.40279L0.021002483978271425,30.151600000000002Q-0.18106751602172855,32.5619,1.5611244839782714,33.784L0.4149114839782715,37.605599999999995L2.8095224839782715,38.3238L3.9097024839782715,34.655699999999996L8.74711248397827,35.7772L8.77395248397827,35.7834L8.798862483978272,35.7894L9.868362483978272,36.0473L10.298542483978272,40.1309L12.784812483978271,39.8691L12.443112483978272,36.6259L12.606612483978271,36.6613L13.683312483978272,35.5578Q15.909212483978271,33.276399999999995,16.023112483978274,30.0911L16.37921248397827,20.13089L11.41161248397827,19.44879ZM3.1526424839782714,22.721899999999998L2.5122624839782715,30.3604Q2.4156024839782715,31.5134,3.4408824839782715,31.980800000000002L9.311692483978272,33.3417L9.343772483978272,33.3493L9.379412483978271,33.3577L10.997642483978272,33.7479L11.321412483978271,24.391170000000002L3.1526424839782714,22.721899999999998ZM3.9828524839782715,26.7506L9.744622483978272,27.924799999999998L10.243852483978271,25.475189999999998L4.482082483978271,24.30096L3.9828524839782715,26.7506Z" fill-rule="evenodd" fill="#3578FF" fill-opacity="1"/></g></g></svg>